# xmcd CD database file
#
# Track frame offsets:
#	150
#	10071
#	20745
#	24755
#	30558
#	34179
#	41746
#	51424
#	62315
#	85317
#	106707
#	126797
#	141076
#	150560
#	163633
#	174467
#	187764
#	195745
#	204922
#	215785
#	225375
#	235295
#	248905
#	257183
#
# Disc length: 3586 seconds
#
# Revision: 0
# Processed by: cddbd v1.5.1PL0 Copyright (c) Steve Scherf et al.
# Submitted via: CDex 1.51
#
DISCID=380e0018
DTITLE=Various Artist - Gardens of the Heart
DYEAR=2001
DGENRE=New Age
TTITLE0=Pastorale
TTITLE1=Jasmin
TTITLE2=Lavendin
TTITLE3=Volubilis
TTITLE4=Coquelicot
TTITLE5=Valse Lente
TTITLE6=D'un Jardin Clair
TTITLE7=D'un Vieux Jardin
TTITLE8=Notturno
TTITLE9=Nocturne in B-flat Major
TTITLE10=Reverie du Soir
TTITLE11=Nocturne
TTITLE12=Etude No. 15
TTITLE13=Etude No. 18
TTITLE14=Etude No. 3
TTITLE15=Etude No. 16
TTITLE16=Abstract No. 7
TTITLE17=Honey Bee
TTITLE18=Peach Blossoms
TTITLE19=Cabbage Rag
TTITLE20=Fire Fly
TTITLE21=Wild Flowers
TTITLE22=Burning Rags
TTITLE23=Red Peppers
EXTD=YEAR: 2001
EXTT0=
EXTT1=
EXTT2=
EXTT3=
EXTT4=
EXTT5=
EXTT6=
EXTT7=
EXTT8=
EXTT9=
EXTT10=
EXTT11=
EXTT12=
EXTT13=
EXTT14=
EXTT15=
EXTT16=
EXTT17=
EXTT18=
EXTT19=
EXTT20=
EXTT21=
EXTT22=
EXTT23=
PLAYORDER=
